<?xml version="1.0" encoding="utf-8"?>
<!-- Generator: Adobe Illustrator 24.0.1, SVG Export Plug-In . SVG Version: 6.00 Build 0)  -->
<svg version="1.1" id="Layer_1" xmlns="http://www.w3.org/2000/svg" xmlns:xlink="http://www.w3.org/1999/xlink" x="0px" y="0px"
	 viewBox="0 0 117.11 40" style="enable-background:new 0 0 117.11 40;" xml:space="preserve">
<style type="text/css">
	.st0{fill:#1C1D1E;}
	.st1{enable-background:new    ;}
	.st2{fill:#FFFFFF;}
</style>
<g>
	<path class="st0" d="M110.17,40H6.94C3.1,40,0,36.82,0,32.89V7.11C0,3.18,3.1,0,6.94,0h103.23c3.84,0,6.94,3.18,6.94,7.11v25.78
		C117.11,36.82,114.01,40,110.17,40z"/>
</g>
<g class="st1">
	<path class="st2" d="M47.16,18.07h-1.53l-0.76-2.14h-3.3l-0.73,2.14h-1.52l3.15-8.4h1.57L47.16,18.07z M44.51,14.8l-1.17-3.35
		c-0.04-0.11-0.07-0.29-0.11-0.53h-0.02c-0.04,0.22-0.07,0.4-0.12,0.53l-1.15,3.35H44.51z"/>
	<path class="st2" d="M49.55,17.19h-0.02v3.64h-1.36v-8.76h1.36v1.05h0.02c0.46-0.8,1.14-1.2,2.04-1.2c0.76,0,1.36,0.27,1.78,0.8
		S54,13.99,54,14.89c0,1-0.24,1.8-0.72,2.4s-1.14,0.9-1.97,0.9C50.55,18.2,49.96,17.86,49.55,17.19z M49.51,14.82v0.74
		c0,0.44,0.14,0.81,0.42,1.11s0.63,0.46,1.06,0.46c0.5,0,0.9-0.2,1.19-0.59s0.43-0.94,0.43-1.64c0-0.59-0.13-1.05-0.4-1.39
		s-0.63-0.5-1.09-0.5c-0.48,0-0.87,0.17-1.17,0.52S49.51,14.31,49.51,14.82z"/>
	<path class="st2" d="M56.78,17.19h-0.02v3.64h-1.36v-8.76h1.36v1.05h0.02c0.46-0.8,1.14-1.2,2.04-1.2c0.76,0,1.36,0.27,1.78,0.8
		s0.64,1.25,0.64,2.16c0,1-0.24,1.8-0.72,2.4s-1.14,0.9-1.97,0.9C57.78,18.2,57.19,17.86,56.78,17.19z M56.74,14.82v0.74
		c0,0.44,0.14,0.81,0.42,1.11s0.63,0.46,1.06,0.46c0.5,0,0.9-0.2,1.19-0.59s0.43-0.94,0.43-1.64c0-0.59-0.13-1.05-0.4-1.39
		s-0.63-0.5-1.09-0.5c-0.48,0-0.87,0.17-1.17,0.52S56.74,14.31,56.74,14.82z"/>
	<path class="st2" d="M65.69,17.74V16.3c0.13,0.12,0.28,0.22,0.46,0.32s0.37,0.17,0.57,0.24s0.4,0.11,0.6,0.15s0.38,0.05,0.55,0.05
		c0.59,0,1.02-0.1,1.31-0.29s0.43-0.48,0.43-0.85c0-0.2-0.05-0.37-0.14-0.52s-0.23-0.28-0.4-0.4s-0.37-0.24-0.61-0.35
		s-0.48-0.23-0.75-0.35c-0.29-0.15-0.55-0.31-0.8-0.46s-0.46-0.33-0.64-0.52s-0.32-0.4-0.43-0.64s-0.16-0.52-0.16-0.84
		c0-0.39,0.09-0.74,0.27-1.03s0.41-0.53,0.7-0.72s0.62-0.33,0.99-0.42s0.75-0.14,1.14-0.14c0.88,0,1.52,0.1,1.92,0.3v1.38
		c-0.48-0.34-1.09-0.52-1.84-0.52c-0.21,0-0.41,0.02-0.62,0.06s-0.39,0.1-0.55,0.19s-0.29,0.21-0.4,0.35s-0.15,0.31-0.15,0.51
		c0,0.19,0.04,0.35,0.12,0.49s0.19,0.26,0.34,0.38s0.33,0.22,0.55,0.33s0.47,0.22,0.75,0.35c0.29,0.15,0.57,0.31,0.83,0.48
		s0.49,0.35,0.69,0.56s0.35,0.43,0.47,0.68s0.17,0.53,0.17,0.85c0,0.43-0.09,0.79-0.26,1.08s-0.4,0.53-0.69,0.71s-0.63,0.32-1,0.4
		s-0.78,0.12-1.2,0.12c-0.14,0-0.31-0.01-0.52-0.03s-0.42-0.05-0.63-0.09s-0.42-0.09-0.61-0.15S65.81,17.81,65.69,17.74z"/>
	<path class="st2" d="M75.27,18.01c-0.27,0.13-0.62,0.2-1.05,0.2c-1.16,0-1.75-0.56-1.75-1.68v-3.39h-1v-1.07h1v-1.39l1.36-0.39
		v1.78h1.44v1.07h-1.44v3c0,0.36,0.06,0.61,0.19,0.76s0.34,0.23,0.64,0.23c0.23,0,0.43-0.07,0.6-0.2V18.01z"/>
	<path class="st2" d="M79.04,18.21c-0.93,0-1.67-0.28-2.22-0.84s-0.83-1.3-0.83-2.23c0-1.01,0.29-1.79,0.86-2.36
		s1.35-0.85,2.33-0.85c0.94,0,1.67,0.28,2.19,0.83s0.79,1.31,0.79,2.29c0,0.96-0.28,1.72-0.85,2.3S79.99,18.21,79.04,18.21z
		 M79.1,13.02c-0.53,0-0.95,0.19-1.26,0.56s-0.46,0.88-0.46,1.54c0,0.63,0.16,1.12,0.47,1.49s0.73,0.54,1.25,0.54
		c0.54,0,0.95-0.18,1.23-0.53s0.43-0.86,0.43-1.52c0-0.66-0.14-1.17-0.43-1.53S79.64,13.02,79.1,13.02z"/>
	<path class="st2" d="M87.02,13.37c-0.16-0.13-0.4-0.19-0.71-0.19c-0.4,0-0.74,0.18-1.01,0.54s-0.4,0.86-0.4,1.48v2.87h-1.36v-6
		h1.36v1.24h0.02c0.13-0.42,0.34-0.75,0.61-0.99s0.58-0.35,0.92-0.35c0.25,0,0.43,0.04,0.56,0.11V13.37z"/>
	<path class="st2" d="M92.96,15.44h-4.09c0.02,0.55,0.19,0.98,0.51,1.28s0.77,0.45,1.34,0.45c0.64,0,1.23-0.19,1.76-0.57v1.1
		c-0.55,0.34-1.27,0.52-2.17,0.52c-0.88,0-1.58-0.27-2.08-0.82s-0.75-1.31-0.75-2.3c0-0.93,0.28-1.69,0.83-2.28s1.24-0.88,2.06-0.88
		s1.46,0.26,1.9,0.79s0.67,1.26,0.67,2.2V15.44z M91.65,14.48c0-0.49-0.12-0.87-0.35-1.14s-0.54-0.41-0.94-0.41
		c-0.39,0-0.72,0.14-0.99,0.43s-0.44,0.66-0.5,1.12H91.65z"/>
	<path class="st2" d="M99.71,18.07h-1.36v-1.02h-0.02c-0.44,0.77-1.11,1.16-2.02,1.16c-0.74,0-1.33-0.27-1.77-0.81
		s-0.67-1.27-0.67-2.19c0-0.99,0.25-1.79,0.74-2.38s1.14-0.9,1.96-0.9c0.81,0,1.4,0.32,1.76,0.97h0.02V9.19h1.36V18.07z
		 M98.37,15.33v-0.79c0-0.43-0.14-0.79-0.42-1.08s-0.63-0.45-1.06-0.45c-0.51,0-0.91,0.19-1.2,0.57s-0.44,0.9-0.44,1.58
		c0,0.61,0.14,1.09,0.42,1.44s0.66,0.53,1.13,0.53c0.46,0,0.84-0.17,1.13-0.51S98.37,15.85,98.37,15.33z"/>
	<path class="st2" d="M106.09,18.07h-1.32v-0.94h-0.02c-0.41,0.72-1.02,1.08-1.82,1.08c-0.59,0-1.05-0.16-1.39-0.48
		s-0.5-0.74-0.5-1.27c0-1.13,0.65-1.79,1.96-1.98l1.78-0.25c0-0.86-0.41-1.28-1.22-1.28c-0.71,0-1.36,0.25-1.93,0.74V12.5
		c0.63-0.38,1.36-0.56,2.19-0.56c1.52,0,2.27,0.75,2.27,2.24V18.07z M104.78,15.13l-1.26,0.18c-0.39,0.05-0.68,0.15-0.88,0.28
		s-0.3,0.38-0.3,0.73c0,0.25,0.09,0.46,0.27,0.62s0.42,0.24,0.73,0.24c0.41,0,0.76-0.15,1.03-0.44s0.41-0.66,0.41-1.1V15.13z"/>
</g>
<g class="st1">
	<path class="st2" d="M43.05,25.07l-1.84,4.64c-0.33,0.83-0.79,1.24-1.38,1.24c-0.17,0-0.31-0.02-0.42-0.05v-0.57
		c0.14,0.05,0.26,0.07,0.38,0.07c0.32,0,0.56-0.19,0.73-0.58l0.32-0.76l-1.56-3.99h0.71l1.08,3.08c0.01,0.04,0.04,0.14,0.08,0.3
		h0.02c0.01-0.06,0.04-0.16,0.08-0.3l1.14-3.09H43.05z"/>
	<path class="st2" d="M46.98,29.07h-0.64v-0.63h-0.02c-0.27,0.48-0.68,0.73-1.23,0.73c-0.95,0-1.43-0.57-1.43-1.7v-2.39h0.64v2.29
		c0,0.84,0.32,1.27,0.97,1.27c0.31,0,0.57-0.12,0.77-0.35s0.3-0.53,0.3-0.9v-2.3h0.64V29.07z"/>
	<path class="st2" d="M51.59,29.07h-0.9l-1.77-1.92h-0.02v1.92h-0.64v-5.92h0.64v3.75h0.02l1.68-1.83h0.84L49.59,27L51.59,29.07z"/>
	<path class="st2" d="M52.89,29.07h-0.64v-5.92h0.64V29.07z"/>
	<path class="st2" d="M57.05,29.07h-0.64v-0.63h-0.02c-0.28,0.48-0.69,0.72-1.23,0.72c-0.4,0-0.71-0.11-0.94-0.32
		s-0.34-0.49-0.34-0.84c0-0.75,0.44-1.18,1.32-1.3l1.2-0.17c0-0.68-0.27-1.02-0.82-1.02c-0.48,0-0.92,0.16-1.3,0.49v-0.66
		c0.39-0.25,0.85-0.38,1.36-0.38c0.94,0,1.41,0.5,1.41,1.49V29.07z M56.41,27.05l-0.96,0.13c-0.3,0.04-0.52,0.12-0.67,0.22
		s-0.23,0.29-0.23,0.56c0,0.2,0.07,0.35,0.21,0.48s0.32,0.19,0.56,0.19c0.32,0,0.58-0.11,0.79-0.33s0.31-0.5,0.31-0.85V27.05z"/>
	<path class="st2" d="M58.91,28.5h-0.02v0.58h-0.64v-5.92h0.64v2.63h0.02c0.31-0.53,0.78-0.8,1.38-0.8c0.51,0,0.92,0.18,1.21,0.54
		c0.29,0.36,0.44,0.84,0.44,1.44c0,0.67-0.16,1.21-0.49,1.61c-0.33,0.4-0.77,0.6-1.34,0.6C59.58,29.17,59.18,28.94,58.91,28.5z
		 M58.89,26.88v0.56c0,0.33,0.11,0.61,0.32,0.84s0.49,0.35,0.82,0.35c0.39,0,0.69-0.15,0.91-0.45c0.22-0.3,0.33-0.71,0.33-1.24
		c0-0.45-0.1-0.79-0.31-1.05c-0.21-0.25-0.48-0.38-0.84-0.38c-0.37,0-0.67,0.13-0.9,0.39S58.89,26.49,58.89,26.88z"/>
	<path class="st2" d="M66.82,29.17c-0.59,0-1.06-0.19-1.42-0.56c-0.35-0.37-0.53-0.87-0.53-1.49c0-0.67,0.18-1.2,0.55-1.57
		s0.86-0.57,1.49-0.57c0.6,0,1.06,0.18,1.4,0.55c0.33,0.37,0.5,0.88,0.5,1.53c0,0.64-0.18,1.15-0.54,1.53
		C67.91,28.98,67.43,29.17,66.82,29.17z M66.87,25.52c-0.41,0-0.74,0.14-0.98,0.42c-0.24,0.28-0.36,0.67-0.36,1.16
		c0,0.47,0.12,0.85,0.36,1.12s0.57,0.41,0.97,0.41c0.41,0,0.73-0.13,0.96-0.4s0.33-0.65,0.33-1.14c0-0.5-0.11-0.89-0.33-1.16
		S67.28,25.52,66.87,25.52z"/>
	<path class="st2" d="M70.48,29.07h-0.64v-5.92h0.64V29.07z"/>
	<path class="st2" d="M72.1,24.06c-0.11,0-0.21-0.04-0.29-0.12c-0.08-0.08-0.12-0.18-0.12-0.3s0.04-0.22,0.12-0.3
		c0.08-0.08,0.18-0.12,0.29-0.12c0.12,0,0.22,0.04,0.3,0.12s0.12,0.18,0.12,0.3c0,0.11-0.04,0.21-0.12,0.29S72.22,24.06,72.1,24.06z
		 M72.41,29.07h-0.64v-4h0.64V29.07z"/>
	<path class="st2" d="M77.03,29.07h-0.64v-2.28c0-0.85-0.31-1.27-0.93-1.27c-0.32,0-0.58,0.12-0.79,0.36
		c-0.21,0.24-0.31,0.54-0.31,0.91v2.28h-0.64v-4h0.64v0.66h0.02c0.3-0.5,0.74-0.76,1.31-0.76c0.44,0,0.77,0.14,1,0.42
		c0.23,0.28,0.35,0.69,0.35,1.22V29.07z"/>
	<path class="st2" d="M81.65,28.75c0,1.47-0.7,2.2-2.11,2.2c-0.49,0-0.93-0.09-1.3-0.28v-0.64c0.45,0.25,0.88,0.38,1.29,0.38
		c0.98,0,1.48-0.52,1.48-1.57V28.4H81c-0.3,0.51-0.76,0.77-1.38,0.77c-0.5,0-0.9-0.18-1.2-0.53c-0.3-0.36-0.46-0.83-0.46-1.43
		c0-0.68,0.16-1.22,0.49-1.62c0.33-0.4,0.77-0.6,1.34-0.6c0.54,0,0.94,0.22,1.2,0.65h0.02v-0.55h0.64V28.75z M81.01,27.27v-0.59
		c0-0.32-0.11-0.59-0.32-0.82s-0.48-0.34-0.8-0.34c-0.4,0-0.71,0.14-0.93,0.43c-0.22,0.29-0.34,0.69-0.34,1.21
		c0,0.45,0.11,0.8,0.32,1.07s0.5,0.4,0.85,0.4c0.36,0,0.65-0.13,0.88-0.38C80.9,27.99,81.01,27.66,81.01,27.27z"/>
</g>
<g>
	<path class="st2" d="M17.31,31.6c-3.52-0.02-6.44-7.21-6.44-10.88c0-5.98,4.49-7.29,6.22-7.29c0.78,0,1.61,0.31,2.35,0.58
		c0.51,0.19,1.04,0.38,1.34,0.38c0.18,0,0.59-0.17,0.96-0.31c0.78-0.31,1.76-0.7,2.9-0.7c0,0,0,0,0.01,0c0.85,0,3.42,0.19,4.97,2.51
		l0.36,0.54l-0.52,0.39c-0.75,0.56-2.1,1.59-2.1,3.62c0,2.41,1.54,3.33,2.28,3.78c0.33,0.2,0.66,0.4,0.66,0.84
		c0,0.29-2.31,6.5-5.66,6.5c-0.82,0-1.4-0.25-1.91-0.46c-0.52-0.22-0.96-0.41-1.7-0.41c-0.37,0-0.85,0.18-1.35,0.36
		c-0.68,0.26-1.46,0.55-2.34,0.55C17.34,31.6,17.31,31.6,17.31,31.6z"/>
	<path class="st2" d="M24.99,7.92c0.09,3.15-2.16,5.33-4.41,5.2C20.21,10.6,22.83,7.92,24.99,7.92z"/>
</g>
</svg>
