<?xml version="1.0" encoding="utf-8"?>
<!-- Generator: Adobe Illustrator 24.0.1, SVG Export Plug-In . SVG Version: 6.00 Build 0)  -->
<svg version="1.1" id="Layer_1" xmlns="http://www.w3.org/2000/svg" xmlns:xlink="http://www.w3.org/1999/xlink" x="0px" y="0px"
	 viewBox="0 0 120 40" style="enable-background:new 0 0 120 40;" xml:space="preserve">
<style type="text/css">
	.st0{fill:#1C1D1E;}
	.st1{fill:url(#SVGID_1_);}
	.st2{fill:url(#SVGID_2_);}
	.st3{fill:url(#SVGID_3_);}
	.st4{fill:url(#SVGID_4_);}
	.st5{enable-background:new    ;}
	.st6{fill:#FFFFFF;}
</style>
<g>
	<path class="st0" d="M112.89,40H7.11C3.18,40,0,36.82,0,32.89V7.11C0,3.18,3.18,0,7.11,0h105.78c3.93,0,7.11,3.18,7.11,7.11v25.78
		C120,36.82,116.82,40,112.89,40z"/>
</g>
<linearGradient id="SVGID_1_" gradientUnits="userSpaceOnUse" x1="16.14" y1="11.25" x2="16.14" y2="33.21" gradientTransform="matrix(1 0 0 -1 0 42)">
	<stop  offset="0" style="stop-color:#01E1FD"/>
	<stop  offset="1" style="stop-color:#01C3FC"/>
</linearGradient>
<path class="st1" d="M22.28,19.31L10.84,30.75c-0.55-0.52-0.84-1.23-0.84-2V10.81c0-0.78,0.31-1.49,0.87-2.02L22.28,19.31z"/>
<linearGradient id="SVGID_2_" gradientUnits="userSpaceOnUse" x1="22.29" y1="22.455" x2="32.17" y2="22.455" gradientTransform="matrix(1 0 0 -1 0 42)">
	<stop  offset="0" style="stop-color:#FBBA06"/>
	<stop  offset="1" style="stop-color:#FEDB00"/>
</linearGradient>
<path class="st2" d="M32.17,19.78c0,1.03-0.56,1.95-1.49,2.47l-3.25,1.8l-4.03-3.72l-1.11-1.02l4.27-4.27l4.12,2.28
	C31.61,17.83,32.17,18.75,32.17,19.78z"/>
<linearGradient id="SVGID_3_" gradientUnits="userSpaceOnUse" x1="22.6546" y1="23.244" x2="15.2059" y2="36.1457" gradientTransform="matrix(1 0 0 -1 0 42)">
	<stop  offset="0" style="stop-color:#04F07A"/>
	<stop  offset="1" style="stop-color:#13D276"/>
</linearGradient>
<path class="st3" d="M22.28,19.31L10.87,8.79c0.15-0.15,0.34-0.28,0.53-0.4c0.93-0.56,2.05-0.58,3.01-0.04l12.13,6.69L22.28,19.31z"
	/>
<linearGradient id="SVGID_4_" gradientUnits="userSpaceOnUse" x1="10.4085" y1="11.9901" x2="25.7478" y2="20.8463" gradientTransform="matrix(1 0 0 -1 0 42)">
	<stop  offset="0" style="stop-color:#E52256"/>
	<stop  offset="1" style="stop-color:#F93942"/>
</linearGradient>
<path class="st4" d="M27.42,24.05l-13.01,7.17c-0.46,0.27-0.98,0.38-1.48,0.38c-0.53,0-1.06-0.13-1.54-0.43
	c-0.21-0.12-0.4-0.27-0.56-0.43L22.27,19.3l1.11,1.02L27.42,24.05z"/>
<g class="st5">
	<path class="st6" d="M43.54,14.23h3.86c0.02,0.09,0.04,0.19,0.06,0.32c0.01,0.13,0.02,0.25,0.02,0.37c0,0.51-0.08,0.98-0.23,1.43
		c-0.15,0.45-0.4,0.85-0.73,1.2c-0.35,0.37-0.77,0.66-1.27,0.87s-1.05,0.31-1.68,0.31c-0.57,0-1.11-0.1-1.62-0.31
		c-0.51-0.21-0.95-0.49-1.32-0.86c-0.37-0.37-0.67-0.8-0.89-1.3c-0.22-0.5-0.33-1.05-0.33-1.64c0-0.59,0.11-1.14,0.33-1.64
		c0.22-0.5,0.52-0.94,0.89-1.3c0.37-0.37,0.81-0.65,1.32-0.86c0.51-0.21,1.04-0.31,1.62-0.31c0.64,0,1.21,0.11,1.71,0.33
		c0.5,0.22,0.93,0.52,1.29,0.91l-1.02,1c-0.26-0.27-0.54-0.48-0.86-0.62c-0.32-0.14-0.69-0.21-1.13-0.21c-0.36,0-0.7,0.06-1.02,0.19
		c-0.32,0.13-0.6,0.31-0.85,0.54c-0.24,0.24-0.43,0.52-0.58,0.85c-0.14,0.33-0.21,0.71-0.21,1.12c0,0.41,0.07,0.78,0.21,1.12
		s0.34,0.62,0.58,0.85s0.53,0.42,0.85,0.54c0.32,0.13,0.67,0.19,1.03,0.19c0.42,0,0.77-0.06,1.06-0.18
		c0.29-0.12,0.54-0.28,0.74-0.47c0.15-0.13,0.27-0.3,0.38-0.5c0.11-0.2,0.19-0.43,0.25-0.68h-2.47V14.23z"/>
	<path class="st6" d="M51.03,12.98c0.42,0,0.8,0.07,1.15,0.21s0.65,0.34,0.9,0.59c0.25,0.25,0.45,0.56,0.59,0.91
		c0.14,0.35,0.21,0.74,0.21,1.15s-0.07,0.8-0.21,1.16s-0.34,0.65-0.59,0.91c-0.25,0.25-0.55,0.45-0.9,0.59
		c-0.35,0.14-0.73,0.21-1.15,0.21s-0.8-0.07-1.15-0.21c-0.35-0.14-0.65-0.34-0.9-0.59c-0.25-0.25-0.45-0.56-0.59-0.91
		s-0.21-0.74-0.21-1.16s0.07-0.8,0.21-1.15c0.14-0.35,0.34-0.66,0.59-0.91c0.25-0.25,0.55-0.45,0.9-0.59
		C50.23,13.06,50.61,12.98,51.03,12.98z M51.03,17.4c0.18,0,0.36-0.03,0.53-0.1c0.17-0.07,0.32-0.17,0.46-0.3
		c0.13-0.13,0.24-0.29,0.31-0.48c0.08-0.19,0.12-0.41,0.12-0.65c0-0.24-0.04-0.46-0.12-0.65c-0.08-0.19-0.18-0.35-0.31-0.48
		c-0.13-0.13-0.28-0.23-0.46-0.3c-0.17-0.07-0.35-0.1-0.53-0.1c-0.19,0-0.37,0.04-0.54,0.1c-0.17,0.07-0.32,0.17-0.45,0.3
		c-0.13,0.13-0.24,0.29-0.31,0.48c-0.08,0.19-0.12,0.41-0.12,0.65c0,0.24,0.04,0.46,0.12,0.65c0.08,0.19,0.18,0.35,0.31,0.48
		c0.13,0.13,0.28,0.23,0.45,0.3C50.66,17.36,50.84,17.4,51.03,17.4z"/>
	<path class="st6" d="M57.37,12.98c0.42,0,0.8,0.07,1.15,0.21s0.65,0.34,0.9,0.59s0.45,0.56,0.59,0.91
		c0.14,0.35,0.21,0.74,0.21,1.15s-0.07,0.8-0.21,1.16c-0.14,0.35-0.34,0.65-0.59,0.91s-0.55,0.45-0.9,0.59
		c-0.35,0.14-0.73,0.21-1.15,0.21s-0.8-0.07-1.15-0.21c-0.35-0.14-0.65-0.34-0.9-0.59c-0.25-0.25-0.45-0.56-0.59-0.91
		s-0.21-0.74-0.21-1.16s0.07-0.8,0.21-1.15c0.14-0.35,0.34-0.66,0.59-0.91c0.25-0.25,0.55-0.45,0.9-0.59
		C56.56,13.06,56.95,12.98,57.37,12.98z M57.37,17.4c0.18,0,0.36-0.03,0.53-0.1c0.17-0.07,0.32-0.17,0.46-0.3
		c0.13-0.13,0.24-0.29,0.31-0.48c0.08-0.19,0.12-0.41,0.12-0.65c0-0.24-0.04-0.46-0.12-0.65c-0.08-0.19-0.18-0.35-0.31-0.48
		c-0.13-0.13-0.28-0.23-0.46-0.3c-0.17-0.07-0.35-0.1-0.53-0.1c-0.19,0-0.37,0.04-0.54,0.1c-0.17,0.07-0.32,0.17-0.45,0.3
		c-0.13,0.13-0.24,0.29-0.31,0.48c-0.08,0.19-0.12,0.41-0.12,0.65c0,0.24,0.04,0.46,0.12,0.65c0.08,0.19,0.18,0.35,0.31,0.48
		c0.13,0.13,0.28,0.23,0.45,0.3C57,17.36,57.18,17.4,57.37,17.4z"/>
	<path class="st6" d="M63.64,21.1c-0.38,0-0.72-0.05-1.02-0.15c-0.3-0.1-0.56-0.23-0.78-0.38c-0.22-0.16-0.4-0.33-0.55-0.52
		c-0.15-0.19-0.25-0.38-0.32-0.57l1.38-0.55c0.1,0.29,0.27,0.51,0.51,0.67c0.23,0.16,0.5,0.24,0.78,0.24c0.45,0,0.81-0.15,1.08-0.44
		c0.26-0.29,0.4-0.7,0.4-1.22v-0.37h-0.09c-0.17,0.23-0.39,0.42-0.67,0.56c-0.27,0.14-0.6,0.2-0.97,0.2c-0.32,0-0.64-0.07-0.94-0.2
		c-0.3-0.13-0.57-0.32-0.81-0.56c-0.24-0.24-0.43-0.54-0.57-0.88c-0.15-0.34-0.22-0.72-0.22-1.14s0.07-0.8,0.22-1.15
		s0.34-0.64,0.57-0.88c0.23-0.24,0.5-0.43,0.81-0.56c0.3-0.13,0.62-0.2,0.94-0.2c0.37,0,0.7,0.07,0.97,0.2
		c0.28,0.14,0.5,0.32,0.67,0.56h0.09v-0.58h1.38v5c0,0.45-0.07,0.86-0.21,1.23c-0.14,0.36-0.33,0.67-0.58,0.92s-0.55,0.45-0.9,0.58
		C64.45,21.03,64.06,21.1,63.64,21.1z M63.69,17.25c0.18,0,0.35-0.03,0.52-0.1c0.17-0.06,0.32-0.16,0.46-0.29
		c0.13-0.13,0.24-0.28,0.32-0.46s0.12-0.39,0.12-0.63c0-0.24-0.04-0.45-0.12-0.64c-0.08-0.19-0.19-0.34-0.32-0.47
		c-0.13-0.13-0.29-0.22-0.46-0.29c-0.17-0.06-0.35-0.1-0.52-0.1s-0.35,0.03-0.52,0.1c-0.17,0.07-0.32,0.16-0.45,0.29
		c-0.13,0.13-0.24,0.29-0.32,0.47s-0.12,0.39-0.12,0.63c0,0.24,0.04,0.45,0.12,0.63s0.19,0.34,0.32,0.46s0.28,0.22,0.45,0.29
		C63.34,17.22,63.52,17.25,63.69,17.25z"/>
	<path class="st6" d="M67.72,18.55v-7.88h1.44v7.88H67.72z"/>
	<path class="st6" d="M75.44,17.25c-0.25,0.44-0.58,0.8-1.01,1.07c-0.42,0.27-0.94,0.41-1.54,0.41c-0.41,0-0.79-0.07-1.14-0.21
		c-0.35-0.14-0.65-0.34-0.91-0.6c-0.26-0.26-0.46-0.56-0.6-0.91c-0.14-0.35-0.21-0.73-0.21-1.15c0-0.39,0.07-0.76,0.21-1.11
		c0.14-0.35,0.33-0.65,0.58-0.91c0.25-0.26,0.54-0.47,0.89-0.62s0.72-0.23,1.13-0.23c0.43,0,0.82,0.07,1.16,0.21
		s0.62,0.34,0.85,0.59c0.23,0.25,0.4,0.55,0.52,0.9s0.18,0.72,0.18,1.12c0,0.05,0,0.1,0,0.13c-0.01,0.04-0.01,0.08-0.01,0.12
		c-0.01,0.04-0.01,0.08-0.01,0.12h-4.06c0.03,0.22,0.09,0.41,0.18,0.57c0.09,0.16,0.21,0.29,0.34,0.4s0.28,0.18,0.45,0.23
		c0.16,0.05,0.33,0.07,0.5,0.07c0.33,0,0.6-0.08,0.82-0.23c0.22-0.15,0.39-0.34,0.51-0.57L75.44,17.25z M74.13,15.16
		c-0.01-0.1-0.04-0.2-0.09-0.32s-0.14-0.23-0.24-0.33s-0.24-0.19-0.4-0.25c-0.16-0.07-0.35-0.1-0.57-0.1
		c-0.31,0-0.58,0.09-0.81,0.26s-0.4,0.42-0.5,0.74H74.13z"/>
	<path class="st6" d="M79.05,18.55v-7.88h2.77c0.37,0,0.72,0.06,1.05,0.18c0.33,0.12,0.61,0.29,0.85,0.51
		c0.24,0.22,0.43,0.48,0.57,0.79s0.21,0.64,0.21,1.01c0,0.37-0.07,0.71-0.21,1.02c-0.14,0.3-0.33,0.57-0.57,0.79
		c-0.24,0.22-0.53,0.39-0.85,0.51c-0.33,0.12-0.68,0.18-1.05,0.18h-1.29v2.89H79.05z M81.84,14.25c0.39,0,0.68-0.11,0.88-0.33
		c0.2-0.22,0.3-0.47,0.3-0.76c0-0.14-0.02-0.28-0.07-0.41s-0.12-0.25-0.22-0.35s-0.22-0.18-0.37-0.24
		c-0.15-0.06-0.32-0.09-0.52-0.09h-1.31v2.17H81.84z"/>
	<path class="st6" d="M85.44,18.55v-7.88h1.44v7.88H85.44z"/>
	<path class="st6" d="M91.38,17.98h-0.09c-0.17,0.21-0.37,0.38-0.61,0.53s-0.54,0.22-0.92,0.22c-0.28,0-0.54-0.05-0.79-0.14
		c-0.25-0.09-0.46-0.22-0.64-0.38S88,17.85,87.9,17.63s-0.15-0.48-0.15-0.75c0-0.28,0.05-0.53,0.17-0.75s0.26-0.42,0.46-0.58
		s0.43-0.28,0.7-0.37c0.27-0.08,0.56-0.13,0.88-0.13c0.35,0,0.64,0.03,0.87,0.08c0.23,0.05,0.41,0.11,0.56,0.17v-0.17
		c0-0.29-0.11-0.52-0.34-0.71c-0.23-0.19-0.51-0.28-0.85-0.28c-0.5,0-0.92,0.21-1.27,0.63l-1.04-0.71c0.57-0.72,1.35-1.08,2.34-1.08
		c0.84,0,1.47,0.2,1.91,0.59c0.44,0.39,0.66,0.97,0.66,1.74v3.23h-1.42V17.98z M91.38,16.36c-0.17-0.08-0.34-0.14-0.52-0.19
		c-0.18-0.05-0.38-0.07-0.59-0.07c-0.34,0-0.61,0.08-0.8,0.23c-0.19,0.15-0.28,0.34-0.28,0.56s0.09,0.4,0.27,0.53
		c0.18,0.13,0.39,0.2,0.62,0.2c0.19,0,0.37-0.03,0.53-0.1c0.16-0.07,0.3-0.16,0.41-0.27c0.11-0.11,0.2-0.25,0.26-0.4
		C91.35,16.68,91.38,16.52,91.38,16.36z"/>
	<path class="st6" d="M95.52,18.29l-2.27-5.13h1.64l1.36,3.27h0.08l1.31-3.27h1.61l-3.38,7.77h-1.55L95.52,18.29z"/>
	<path class="st6" d="M103.71,17.9h-0.09c-0.13,0.23-0.34,0.42-0.62,0.58c-0.28,0.16-0.62,0.24-1.03,0.24
		c-0.34,0-0.67-0.07-0.98-0.21c-0.31-0.14-0.59-0.34-0.82-0.59c-0.24-0.25-0.43-0.56-0.57-0.91c-0.14-0.35-0.21-0.74-0.21-1.16
		s0.07-0.8,0.21-1.15c0.14-0.35,0.33-0.66,0.57-0.91c0.24-0.25,0.51-0.45,0.82-0.59s0.64-0.21,0.98-0.21c0.41,0,0.76,0.08,1.03,0.24
		c0.28,0.16,0.48,0.36,0.62,0.58h0.09l-0.09-0.77v-2.37h1.44v7.88h-1.35V17.9z M102.27,17.4c0.19,0,0.37-0.03,0.54-0.1
		c0.17-0.07,0.32-0.17,0.46-0.3c0.13-0.13,0.24-0.29,0.32-0.48c0.08-0.19,0.12-0.41,0.12-0.65c0-0.24-0.04-0.46-0.12-0.65
		c-0.08-0.19-0.19-0.35-0.32-0.48c-0.13-0.13-0.29-0.23-0.46-0.3c-0.17-0.07-0.35-0.1-0.54-0.1c-0.19,0-0.37,0.04-0.54,0.11
		c-0.17,0.07-0.32,0.18-0.46,0.31c-0.13,0.13-0.24,0.29-0.32,0.48c-0.08,0.19-0.12,0.4-0.12,0.64c0,0.24,0.04,0.45,0.12,0.64
		c0.08,0.19,0.19,0.35,0.32,0.48c0.13,0.13,0.28,0.24,0.46,0.31C101.9,17.36,102.08,17.4,102.27,17.4z"/>
	<path class="st6" d="M109.56,17.98h-0.09c-0.17,0.21-0.37,0.38-0.61,0.53s-0.54,0.22-0.92,0.22c-0.28,0-0.54-0.05-0.79-0.14
		c-0.25-0.09-0.46-0.22-0.64-0.38c-0.18-0.16-0.33-0.36-0.43-0.58s-0.15-0.48-0.15-0.75c0-0.28,0.06-0.53,0.17-0.75
		c0.11-0.22,0.26-0.42,0.46-0.58c0.2-0.16,0.43-0.28,0.7-0.37c0.27-0.08,0.56-0.13,0.87-0.13c0.35,0,0.64,0.03,0.87,0.08
		c0.23,0.05,0.41,0.11,0.56,0.17v-0.17c0-0.29-0.11-0.52-0.34-0.71c-0.23-0.19-0.51-0.28-0.85-0.28c-0.5,0-0.92,0.21-1.26,0.63
		l-1.04-0.71c0.57-0.72,1.35-1.08,2.34-1.08c0.84,0,1.47,0.2,1.91,0.59c0.44,0.39,0.66,0.97,0.66,1.74v3.23h-1.42V17.98z
		 M109.56,16.36c-0.17-0.08-0.34-0.14-0.52-0.19c-0.18-0.05-0.38-0.07-0.59-0.07c-0.34,0-0.61,0.08-0.8,0.23
		c-0.19,0.15-0.28,0.34-0.28,0.56s0.09,0.4,0.27,0.53c0.18,0.13,0.39,0.2,0.62,0.2c0.19,0,0.37-0.03,0.53-0.1
		c0.16-0.07,0.3-0.16,0.41-0.27c0.11-0.11,0.2-0.25,0.26-0.4C109.53,16.68,109.56,16.52,109.56,16.36z"/>
</g>
<g class="st5">
	<path class="st6" d="M40.32,29.55h-0.74v-5.73h0.74l1.99,3.49h0.03l1.99-3.49h0.74v5.73h-0.74v-3.4l0.03-0.96h-0.03l-1.79,3.14
		h-0.43l-1.79-3.14h-0.03l0.03,0.96V29.55z"/>
	<path class="st6" d="M46.56,29.55h-0.82l2.16-5.73h0.83l2.16,5.73h-0.82L49.53,28h-2.41L46.56,29.55z M48.3,24.73l-0.94,2.58h1.9
		l-0.94-2.58H48.3z"/>
	<path class="st6" d="M53.31,29.55h-0.77l-2.02-5.73h0.82l1.57,4.65h0.03l1.63-4.65h0.82L53.31,29.55z"/>
	<path class="st6" d="M56.66,29.68c-0.43,0-0.81-0.12-1.12-0.35c-0.31-0.24-0.54-0.56-0.66-0.98l0.7-0.29
		c0.18,0.61,0.54,0.91,1.09,0.91c0.3,0,0.54-0.11,0.72-0.32c0.18-0.21,0.28-0.48,0.28-0.82v-4.02h0.74v3.95
		c0,0.59-0.16,1.06-0.47,1.4S57.2,29.68,56.66,29.68z"/>
	<path class="st6" d="M61.45,29.68c-0.63,0-1.15-0.21-1.54-0.62c-0.39-0.41-0.58-0.95-0.58-1.63v-3.6h0.74v3.63
		c0,0.47,0.12,0.84,0.37,1.11c0.25,0.27,0.58,0.41,1.02,0.41c0.43,0,0.77-0.14,1.02-0.41c0.25-0.27,0.37-0.64,0.37-1.11v-3.63h0.74
		v3.6c0,0.69-0.19,1.24-0.58,1.65C62.61,29.48,62.09,29.68,61.45,29.68z"/>
	<path class="st6" d="M64.59,29.55v-5.73h1.75c0.87,0,1.58,0.26,2.11,0.79c0.53,0.53,0.8,1.22,0.8,2.07c0,0.86-0.26,1.55-0.8,2.08
		c-0.53,0.53-1.23,0.79-2.11,0.79H64.59z M65.33,24.53v4.32h1.02c0.67,0,1.19-0.19,1.58-0.57c0.38-0.38,0.58-0.91,0.58-1.59
		c0-0.67-0.19-1.2-0.58-1.58c-0.38-0.38-0.91-0.58-1.58-0.58H65.33z"/>
</g>
</svg>
